<mxfile host="app.diagrams.net" modified="2023-12-12T21:04:43.109Z" agent="Mozilla/5.0 (Macintosh; Intel Mac OS X 10_15_7) AppleWebKit/537.36 (KHTML, like Gecko) Chrome/119.0.0.0 Safari/537.36" etag="HqnL9QgwPeG0qMlwMRHc" version="22.1.7" type="device">
  <diagram name="Page-1" id="QAfZgk5j_SZF2oAUkSlV">
    <mxGraphModel dx="1593" dy="1158" grid="0" gridSize="22" guides="1" tooltips="1" connect="1" arrows="1" fold="1" page="0" pageScale="1" pageWidth="850" pageHeight="1100" background="#4A4A4A" math="0" shadow="1">
      <root>
        <mxCell id="0" />
        <mxCell id="1" parent="0" />
        <mxCell id="7F5XBltjdlS2QW4fa-_A-5" value="" style="shape=cube;whiteSpace=wrap;html=1;boundedLbl=1;backgroundOutline=1;darkOpacity=0.05;darkOpacity2=0.1;fillColor=#545151;fontColor=#ffffff;strokeColor=#FFFFFF;" parent="1" vertex="1">
          <mxGeometry x="-40" y="-69" width="289" height="282" as="geometry" />
        </mxCell>
        <mxCell id="7F5XBltjdlS2QW4fa-_A-27" value="&lt;span style=&quot;color: rgb(255, 255, 255); font-size: 20px;&quot;&gt;&amp;lt;&amp;lt; Client &amp;gt;&amp;gt;&lt;br&gt;User Phone&lt;/span&gt;" style="text;html=1;strokeColor=none;fillColor=none;align=center;verticalAlign=middle;whiteSpace=wrap;rounded=0;" parent="1" vertex="1">
          <mxGeometry x="48" y="-5" width="127" height="30" as="geometry" />
        </mxCell>
        <mxCell id="7F5XBltjdlS2QW4fa-_A-47" value="" style="shape=cube;whiteSpace=wrap;html=1;boundedLbl=1;backgroundOutline=1;darkOpacity=0.05;darkOpacity2=0.1;fillColor=#545151;fontColor=#ffffff;strokeColor=#FFFFFF;" parent="1" vertex="1">
          <mxGeometry x="-40" y="346" width="289" height="282" as="geometry" />
        </mxCell>
        <mxCell id="7F5XBltjdlS2QW4fa-_A-48" value="" style="shape=cube;whiteSpace=wrap;html=1;boundedLbl=1;backgroundOutline=1;darkOpacity=0.05;darkOpacity2=0.1;fillColor=#545151;fontColor=#ffffff;strokeColor=#FFFFFF;" parent="1" vertex="1">
          <mxGeometry x="563" y="-69" width="289" height="282" as="geometry" />
        </mxCell>
        <mxCell id="7F5XBltjdlS2QW4fa-_A-50" value="" style="shape=cube;whiteSpace=wrap;html=1;boundedLbl=1;backgroundOutline=1;darkOpacity=0.05;darkOpacity2=0.1;fillColor=#545151;fontColor=#ffffff;strokeColor=#FFFFFF;" parent="1" vertex="1">
          <mxGeometry x="553" y="354" width="289" height="282" as="geometry" />
        </mxCell>
        <mxCell id="7F5XBltjdlS2QW4fa-_A-52" value="" style="shape=cube;whiteSpace=wrap;html=1;boundedLbl=1;backgroundOutline=1;darkOpacity=0.05;darkOpacity2=0.1;" parent="1" vertex="1">
          <mxGeometry x="9" y="477" width="176" height="133" as="geometry" />
        </mxCell>
        <mxCell id="7F5XBltjdlS2QW4fa-_A-53" value="&lt;span style=&quot;color: rgb(255, 255, 255); font-size: 20px;&quot;&gt;&amp;lt;&amp;lt; Server &amp;gt;&amp;gt;&lt;br&gt;Database System (ElephantSQL)&lt;br&gt;&lt;/span&gt;" style="text;html=1;strokeColor=none;fillColor=none;align=center;verticalAlign=middle;whiteSpace=wrap;rounded=0;" parent="1" vertex="1">
          <mxGeometry x="9.25" y="399" width="204.5" height="43" as="geometry" />
        </mxCell>
        <mxCell id="7F5XBltjdlS2QW4fa-_A-55" value="&lt;font style=&quot;font-size: 19px;&quot;&gt;Database&lt;/font&gt;" style="rounded=0;whiteSpace=wrap;html=1;fillColor=#6d8764;strokeColor=#3A5431;fontColor=#ffffff;" parent="1" vertex="1">
          <mxGeometry x="59" y="568" width="91" height="24" as="geometry" />
        </mxCell>
        <mxCell id="7F5XBltjdlS2QW4fa-_A-56" value="&lt;span style=&quot;color: rgb(255, 255, 255); font-size: 20px;&quot;&gt;&amp;lt;&amp;lt; Server &amp;gt;&amp;gt;&lt;br&gt;Azure&lt;br&gt;&lt;/span&gt;" style="text;html=1;strokeColor=none;fillColor=none;align=center;verticalAlign=middle;whiteSpace=wrap;rounded=0;" parent="1" vertex="1">
          <mxGeometry x="657" y="-16" width="123" height="30" as="geometry" />
        </mxCell>
        <mxCell id="7F5XBltjdlS2QW4fa-_A-58" value="&lt;font style=&quot;font-size: 16px;&quot;&gt;Web app&lt;/font&gt;" style="shape=cube;whiteSpace=wrap;html=1;boundedLbl=1;backgroundOutline=1;darkOpacity=0.05;darkOpacity2=0.1;" parent="1" vertex="1">
          <mxGeometry x="600" y="67" width="105" height="113" as="geometry" />
        </mxCell>
        <mxCell id="7F5XBltjdlS2QW4fa-_A-61" value="&lt;font style=&quot;font-size: 16px;&quot;&gt;Storage Account&lt;/font&gt;" style="shape=cube;whiteSpace=wrap;html=1;boundedLbl=1;backgroundOutline=1;darkOpacity=0.05;darkOpacity2=0.1;" parent="1" vertex="1">
          <mxGeometry x="737" y="69" width="105" height="113" as="geometry" />
        </mxCell>
        <mxCell id="7F5XBltjdlS2QW4fa-_A-67" value="&lt;font style=&quot;font-size: 14px;&quot;&gt;Server.js&lt;/font&gt;" style="rounded=0;whiteSpace=wrap;html=1;fillColor=#6d8764;strokeColor=#3A5431;fontColor=#ffffff;" parent="1" vertex="1">
          <mxGeometry x="629" y="149" width="60" height="21" as="geometry" />
        </mxCell>
        <mxCell id="7F5XBltjdlS2QW4fa-_A-68" value="&lt;font style=&quot;font-size: 15px;&quot;&gt;Image Files&lt;/font&gt;" style="rounded=0;whiteSpace=wrap;html=1;fillColor=#6d8764;strokeColor=#3A5431;fontColor=#ffffff;" parent="1" vertex="1">
          <mxGeometry x="759" y="155" width="81" height="20" as="geometry" />
        </mxCell>
        <mxCell id="7F5XBltjdlS2QW4fa-_A-69" value="&lt;span style=&quot;color: rgb(255, 255, 255); font-size: 20px;&quot;&gt;&amp;lt;&amp;lt; Server &amp;gt;&amp;gt;&lt;br&gt;Github&lt;br&gt;&lt;/span&gt;" style="text;html=1;strokeColor=none;fillColor=none;align=center;verticalAlign=middle;whiteSpace=wrap;rounded=0;" parent="1" vertex="1">
          <mxGeometry x="639" y="412" width="137" height="30" as="geometry" />
        </mxCell>
        <mxCell id="7F5XBltjdlS2QW4fa-_A-71" value="&lt;font style=&quot;font-size: 20px;&quot;&gt;Service Repository&lt;/font&gt;" style="rounded=0;whiteSpace=wrap;html=1;fillColor=#6d8764;fontColor=#ffffff;strokeColor=#3A5431;" parent="1" vertex="1">
          <mxGeometry x="615" y="468.5" width="151" height="129" as="geometry" />
        </mxCell>
        <mxCell id="7F5XBltjdlS2QW4fa-_A-72" value="" style="endArrow=none;html=1;rounded=0;exitX=1;exitY=0.75;exitDx=0;exitDy=0;strokeColor=#FFFFFF;" parent="1" source="7F5XBltjdlS2QW4fa-_A-67" edge="1">
          <mxGeometry width="50" height="50" relative="1" as="geometry">
            <mxPoint x="1038" y="184" as="sourcePoint" />
            <mxPoint x="750" y="165" as="targetPoint" />
          </mxGeometry>
        </mxCell>
        <mxCell id="7F5XBltjdlS2QW4fa-_A-73" value="" style="endArrow=none;html=1;rounded=0;exitX=0.054;exitY=0.661;exitDx=0;exitDy=0;exitPerimeter=0;strokeColor=#FFFFFF;" parent="1" source="7F5XBltjdlS2QW4fa-_A-58" edge="1">
          <mxGeometry width="50" height="50" relative="1" as="geometry">
            <mxPoint x="392.12" y="296" as="sourcePoint" />
            <mxPoint x="177" y="495" as="targetPoint" />
          </mxGeometry>
        </mxCell>
        <mxCell id="7F5XBltjdlS2QW4fa-_A-75" value="" style="endArrow=none;html=1;rounded=0;exitX=0.066;exitY=0.575;exitDx=0;exitDy=0;exitPerimeter=0;strokeColor=#FFFFFF;entryX=1;entryY=0.75;entryDx=0;entryDy=0;" parent="1" source="7F5XBltjdlS2QW4fa-_A-58" target="7F5XBltjdlS2QW4fa-_A-85" edge="1">
          <mxGeometry width="50" height="50" relative="1" as="geometry">
            <mxPoint x="366" y="137" as="sourcePoint" />
            <mxPoint x="175" y="130" as="targetPoint" />
          </mxGeometry>
        </mxCell>
        <mxCell id="7F5XBltjdlS2QW4fa-_A-76" value="" style="endArrow=none;html=1;rounded=0;strokeColor=#FFFFFF;entryX=0.41;entryY=0.028;entryDx=0;entryDy=0;entryPerimeter=0;" parent="1" target="7F5XBltjdlS2QW4fa-_A-71" edge="1">
          <mxGeometry width="50" height="50" relative="1" as="geometry">
            <mxPoint x="672" y="179" as="sourcePoint" />
            <mxPoint x="792.8799999999997" y="431.03999999999996" as="targetPoint" />
          </mxGeometry>
        </mxCell>
        <mxCell id="7F5XBltjdlS2QW4fa-_A-80" value="&lt;font style=&quot;font-size: 20px;&quot; color=&quot;#ffffff&quot;&gt;HTTP(S)&lt;/font&gt;" style="text;html=1;strokeColor=none;fillColor=none;align=center;verticalAlign=middle;whiteSpace=wrap;rounded=0;" parent="1" vertex="1">
          <mxGeometry x="347" y="87" width="90" height="34" as="geometry" />
        </mxCell>
        <mxCell id="7F5XBltjdlS2QW4fa-_A-85" value="&lt;font style=&quot;font-size: 20px;&quot;&gt;App.js&lt;/font&gt;" style="rounded=0;whiteSpace=wrap;html=1;fillColor=#6d8764;strokeColor=#3A5431;fontColor=#ffffff;" parent="1" vertex="1">
          <mxGeometry x="58" y="85" width="107" height="64" as="geometry" />
        </mxCell>
        <mxCell id="7F5XBltjdlS2QW4fa-_A-88" value="&lt;font style=&quot;font-size: 20px;&quot; color=&quot;#ffffff&quot;&gt;pg-promise&lt;/font&gt;" style="text;html=1;strokeColor=none;fillColor=none;align=center;verticalAlign=middle;whiteSpace=wrap;rounded=0;rotation=-40;" parent="1" vertex="1">
          <mxGeometry x="329.7" y="267.03" width="126" height="48" as="geometry" />
        </mxCell>
        <mxCell id="1gCcA4Uuf86Veu9_rIYG-1" value="&lt;span style=&quot;&quot;&gt;&amp;lt;&amp;lt;Database Management System&amp;gt;&amp;gt; (PostgreSQL)&lt;br&gt;&lt;/span&gt;" style="text;html=1;strokeColor=none;fillColor=none;align=center;verticalAlign=middle;whiteSpace=wrap;rounded=0;fontColor=#000000;" vertex="1" parent="1">
          <mxGeometry x="36.5" y="499" width="136" height="59" as="geometry" />
        </mxCell>
      </root>
    </mxGraphModel>
  </diagram>
</mxfile>
